<?xml version="1.0" encoding="utf-8"?>
<!-- Generator: Adobe Illustrator 24.0.1, SVG Export Plug-In . SVG Version: 6.00 Build 0)  -->
<svg version="1.1" id="Layer_1" xmlns="http://www.w3.org/2000/svg" xmlns:xlink="http://www.w3.org/1999/xlink" x="0px" y="0px"
	 viewBox="0 0 622.4 622.4" style="enable-background:new 0 0 622.4 622.4;" xml:space="preserve">
<style type="text/css">
	.st0{fill-rule:evenodd;clip-rule:evenodd;fill:none;stroke:#2D333D;stroke-width:3;stroke-linejoin:round;stroke-miterlimit:10;}
	.st1{fill-rule:evenodd;clip-rule:evenodd;fill:url(#SVGID_1_);}
	.st2{display:none;fill-rule:evenodd;clip-rule:evenodd;}
	.st3{clip-path:url(#SVGID_3_);}
	.st4{fill-rule:evenodd;clip-rule:evenodd;fill:url(#SVGID_4_);}
	.st5{clip-path:url(#SVGID_3_);fill-rule:evenodd;clip-rule:evenodd;fill:#2D333D;}
	.st6{fill:#53585E;}
	.st7{fill:#231F20;}
	.st8{fill-rule:evenodd;clip-rule:evenodd;fill:#231F20;}
	.st9{clip-path:url(#SVGID_6_);fill-rule:evenodd;clip-rule:evenodd;fill:url(#SVGID_7_);}
	.st10{clip-path:url(#SVGID_6_);fill-rule:evenodd;clip-rule:evenodd;fill:url(#SVGID_8_);}
	.st11{clip-path:url(#SVGID_6_);fill-rule:evenodd;clip-rule:evenodd;fill:url(#SVGID_9_);}
	.st12{clip-path:url(#SVGID_6_);fill-rule:evenodd;clip-rule:evenodd;fill:url(#SVGID_10_);}
	.st13{clip-path:url(#SVGID_6_);fill-rule:evenodd;clip-rule:evenodd;fill:url(#SVGID_11_);}
	.st14{clip-path:url(#SVGID_6_);fill-rule:evenodd;clip-rule:evenodd;fill:url(#SVGID_12_);}
	.st15{opacity:0.33;clip-path:url(#SVGID_6_);fill-rule:evenodd;clip-rule:evenodd;fill:url(#SVGID_13_);}
	.st16{clip-path:url(#SVGID_6_);}
	.st17{clip-path:url(#SVGID_15_);}
	.st18{opacity:0.5;fill-rule:evenodd;clip-rule:evenodd;fill:url(#SVGID_16_);}
	.st19{fill-rule:evenodd;clip-rule:evenodd;fill:none;stroke:#000000;stroke-width:3;stroke-miterlimit:10;}
	.st20{fill-rule:evenodd;clip-rule:evenodd;fill:#312F2F;}
	.st21{fill-rule:evenodd;clip-rule:evenodd;fill:url(#SVGID_17_);}
</style>
<line class="st0" x1="248.2" y1="308.82" x2="290.89" y2="279.92"/>
<linearGradient id="SVGID_1_" gradientUnits="userSpaceOnUse" x1="319.9136" y1="136.6204" x2="319.9136" y2="516.1021">
	<stop  offset="0" style="stop-color:#53585E"/>
	<stop  offset="1" style="stop-color:#312F2F"/>
</linearGradient>
<rect x="313.31" y="123.71" class="st1" width="13.2" height="394.18"/>
<rect x="50.08" y="59.19" class="st2" width="487.36" height="487.36"/>
<g>
	<defs>
		
			<rect id="SVGID_2_" x="51.67" y="96.79" transform="matrix(-1 -1.224647e-16 1.224647e-16 -1 347.5528 675.3321)" width="244.22" height="481.75"/>
	</defs>
	<clipPath id="SVGID_3_">
		<use xlink:href="#SVGID_2_"  style="overflow:visible;"/>
	</clipPath>
	<g class="st3">
		<linearGradient id="SVGID_4_" gradientUnits="userSpaceOnUse" x1="454.9801" y1="307.4921" x2="475.6039" y2="236.3831">
			<stop  offset="0" style="stop-color:#016A37"/>
			<stop  offset="0.5057" style="stop-color:#059046"/>
			<stop  offset="1" style="stop-color:#1CA54A"/>
		</linearGradient>
		<polygon class="st4" points="489.19,243.57 414.91,299.23 456.14,303.35 515.99,243.57 		"/>
		<path class="st0" d="M191.24,523.88l199.99-342.19l-88.74-11.84L165.47,523.88H191.24z"/>
		<polyline class="st0" points="287.19,359.7 248.2,308.82 263.63,400.68 210.86,405.08 237.87,444.09 189.26,462.42 206.96,496.98 
			178.04,486.39 151.33,500.43 165.01,459.59 119.35,447.41 138.44,393.28 		"/>
		<polygon class="st0" points="138.67,395.04 83.41,387.83 165.47,523.88 178.02,491.46 		"/>
	</g>
	<circle class="st5" cx="83.78" cy="388.01" r="6.57"/>
	<circle class="st5" cx="211.23" cy="405.26" r="6.57"/>
	<circle class="st5" cx="165.01" cy="524.39" r="6.57"/>
	<circle class="st5" cx="206.53" cy="497.06" r="6.57"/>
	<circle class="st5" cx="239.11" cy="443.8" r="6.57"/>
	<circle class="st5" cx="263.77" cy="400.53" r="6.57"/>
	<circle class="st5" cx="189.12" cy="462.37" r="6.57"/>
	<circle class="st5" cx="166" cy="460.09" r="6.57"/>
	<circle class="st5" cx="119.35" cy="446.26" r="6.57"/>
	<circle class="st5" cx="138.8" cy="395.93" r="6.57"/>
	<circle class="st5" cx="191.26" cy="524.39" r="6.57"/>
	<circle class="st5" cx="178.15" cy="488.12" r="6.57"/>
	<circle class="st5" cx="151.06" cy="500.43" r="6.57"/>
	<circle class="st5" cx="248.2" cy="308.82" r="6.57"/>
</g>
<g>
	<g>
		<path class="st6" d="M287.16,65.82h21.51c4.79,0,8.53,1.24,11.2,3.72c2.67,2.48,4,6.73,4,12.75c0,3.78-0.6,6.66-1.8,8.66
			c-1.2,2-2.88,3.61-5.05,4.84l8.75,18.97H313.4l-7.06-16.86h-6.02v16.86h-13.16V65.82z M307.29,87.75c1.49,0,2.6-0.43,3.32-1.28
			c0.72-0.86,1.09-2.23,1.09-4.12c0-1.89-0.35-3.2-1.05-3.95c-0.7-0.75-1.82-1.12-3.36-1.12h-6.97v10.47H307.29z"/>
	</g>
</g>
<g>
	<path class="st7" d="M290.93,65.82h21.51c4.79,0,8.53,1.24,11.2,3.72c2.67,2.48,4,6.73,4,12.75c0,3.78-0.6,6.66-1.8,8.66
		c-1.2,2-2.88,3.61-5.05,4.84l8.75,18.97h-13.37l-7.06-16.86h-5.02v16.86h-13.16V65.82z M310.06,87.75c1.49,0,2.6-0.43,3.32-1.28
		c0.72-0.86,1.09-2.23,1.09-4.12c0-1.89-0.35-3.2-1.05-3.95c-0.7-0.75-1.82-1.12-3.36-1.12h-5.97v10.47H310.06z"/>
</g>
<rect x="316.3" y="123.71" class="st8" width="13.2" height="394.18"/>
<g>
	<defs>
		<rect id="SVGID_5_" x="304.09" y="39.06" width="287.57" height="556.55"/>
	</defs>
	<clipPath id="SVGID_6_">
		<use xlink:href="#SVGID_5_"  style="overflow:visible;"/>
	</clipPath>
	<linearGradient id="SVGID_7_" gradientUnits="userSpaceOnUse" x1="390.6771" y1="177.3112" x2="484.0932" y2="260.0849">
		<stop  offset="0" style="stop-color:#006535"/>
		<stop  offset="1" style="stop-color:#039147"/>
	</linearGradient>
	<path class="st9" d="M450.97,272.93L303.35,169.29l120.26-32.15l74.99,140.55L450.97,272.93z"/>
	<linearGradient id="SVGID_8_" gradientUnits="userSpaceOnUse" x1="377.4399" y1="179.6004" x2="448.5202" y2="288.5201">
		<stop  offset="0" style="stop-color:#1F4B36"/>
		<stop  offset="0.2814" style="stop-color:#125936"/>
		<stop  offset="0.5057" style="stop-color:#026837"/>
		<stop  offset="1" style="stop-color:#1F4B36"/>
	</linearGradient>
	<path class="st10" d="M450.97,272.93L303.35,169.29l120.26-22.15l74.99,130.55L450.97,272.93z"/>
	<linearGradient id="SVGID_9_" gradientUnits="userSpaceOnUse" x1="497.264" y1="282.4764" x2="521.0903" y2="200.3256">
		<stop  offset="0" style="stop-color:#039147"/>
		<stop  offset="1" style="stop-color:#006535"/>
	</linearGradient>
	<polygon class="st11" points="536.78,208.63 450.97,272.93 498.6,277.69 567.74,208.63 	"/>
	<linearGradient id="SVGID_10_" gradientUnits="userSpaceOnUse" x1="495.8712" y1="282.1069" x2="519.4863" y2="200.6841">
		<stop  offset="0" style="stop-color:#016A37"/>
		<stop  offset="0.5057" style="stop-color:#059046"/>
		<stop  offset="1" style="stop-color:#1CA54A"/>
	</linearGradient>
	<polygon class="st12" points="536.78,208.63 450.97,272.93 498.6,277.69 564.74,208.63 	"/>
	<linearGradient id="SVGID_11_" gradientUnits="userSpaceOnUse" x1="306.8102" y1="356.109" x2="370.7031" y2="135.8123">
		<stop  offset="0" style="stop-color:#039147"/>
		<stop  offset="1" style="stop-color:#006535"/>
	</linearGradient>
	<path class="st13" d="M292.09,362.24l134.57-219.4l-3.04-5.69l-117.26,32.15L293,203.81L292.09,362.24z"/>
	<linearGradient id="SVGID_12_" gradientUnits="userSpaceOnUse" x1="252.2719" y1="344.5133" x2="390.3785" y2="168.7412">
		<stop  offset="0" style="stop-color:#004A36"/>
		<stop  offset="0.2002" style="stop-color:#006937"/>
		<stop  offset="0.5057" style="stop-color:#039147"/>
		<stop  offset="1" style="stop-color:#19A14A"/>
	</linearGradient>
	<path class="st14" d="M192.85,529.92l230.77-392.78l-119.53,31.65L163.08,529.92H192.85z"/>
	<linearGradient id="SVGID_13_" gradientUnits="userSpaceOnUse" x1="305.5718" y1="333.5317" x2="314.8048" y2="333.5317">
		<stop  offset="0" style="stop-color:#231F20"/>
		<stop  offset="1" style="stop-color:#FFFFFF"/>
	</linearGradient>
	<path class="st15" d="M192.85,529.92l111.4-187.52l122.4-199.57l-3.04-5.69l-120.64,32.22l-139.9,360.56H192.85z"/>
	<g class="st16">
		<defs>
			<path id="SVGID_14_" d="M195.57,532.46l231.05-395.32l-120.26,32.15L165.8,532.46H195.57z"/>
		</defs>
		<clipPath id="SVGID_15_">
			<use xlink:href="#SVGID_14_"  style="overflow:visible;"/>
		</clipPath>
		<g class="st17">
			<linearGradient id="SVGID_16_" gradientUnits="userSpaceOnUse" x1="112.8868" y1="175.8767" x2="112.8868" y2="384.7791">
				<stop  offset="0" style="stop-color:#FFFFFF"/>
				<stop  offset="1" style="stop-color:#231F20"/>
			</linearGradient>
			<polygon class="st18" points="83.94,349.87 62.78,396.59 62.78,142.3 162.99,156.49 			"/>
		</g>
	</g>
</g>
<path class="st19" d="M163.77,362.28"/>
<path class="st20" d="M313.31,517.89c0,3.38-2.74,6.12-6.12,6.12s-7.12-2.74-7.12-6.12h-13.19c0,10.66,8.64,19.31,19.31,19.31
	c0.32,0,4.39,0,4.39,0s14.91-8.96,14.91-19.31H313.31z"/>
<linearGradient id="SVGID_17_" gradientUnits="userSpaceOnUse" x1="293.4872" y1="377.7591" x2="293.4872" y2="506.5708">
	<stop  offset="0" style="stop-color:#53585E"/>
	<stop  offset="1" style="stop-color:#312F2F"/>
</linearGradient>
<rect x="286.89" y="123.58" class="st21" width="13.2" height="394.18"/>
<path class="st8" d="M316.31,517.89c0,3.38-2.74,6.12-6.12,6.12s-6.12-2.74-6.12-6.12h-13.19c0,10.66,8.64,19.31,19.31,19.31
	s19.31-8.64,19.31-19.31H316.31z"/>
<rect x="290.89" y="123.71" class="st8" width="13.2" height="394.18"/>
</svg>
